<svg version="1.1" id="Layer_1" xmlns="http://www.w3.org/2000/svg" xmlns:xlink="http://www.w3.org/1999/xlink" x="0px" y="0px"
	 width="100%" viewBox="0 0 402 125" enable-background="new 0 0 402 125" xml:space="preserve">
<path fill="#FFFEFE" opacity="1.000000" stroke="none" 
	d="
M403.000000,77.000000 
	C403.000000,93.313240 403.000000,109.626488 403.000000,126.000000 
	C300.979126,126.000000 198.958221,126.000000 96.625534,125.670929 
	C100.396919,123.224045 105.022995,121.752007 108.458450,118.863777 
	C117.682770,111.108788 120.132355,98.509315 114.492546,86.604675 
	C103.543571,63.493328 92.058975,40.636253 80.893196,17.626810 
	C77.053848,9.715014 71.805786,3.486056 63.000000,1.000000 
	C176.210831,1.000000 289.421661,1.000000 403.000000,1.000000 
	C403.000000,22.352821 403.000000,43.707752 402.692505,65.320877 
	C399.178192,48.879055 383.426178,41.646141 366.592529,49.682713 
	C366.592529,41.221886 366.592529,33.023251 366.592529,24.770321 
	C362.308289,24.770321 358.605927,24.770321 354.833801,24.770321 
	C354.833801,48.038776 354.833801,70.901917 354.833801,93.732002 
	C364.499847,94.560081 364.713593,94.518089 367.310425,91.380394 
	C378.126343,99.611008 395.556519,94.040337 400.969666,80.800499 
	C401.510345,79.478027 402.316833,78.264229 403.000000,77.000000 
M210.641647,93.363251 
	C210.641647,78.054077 210.641647,62.744904 210.641647,47.154385 
	C206.819244,47.154385 203.389816,47.154385 199.434509,47.131790 
	C199.297012,47.418945 199.159531,47.706100 198.848129,48.917999 
	C198.897842,63.611729 198.947571,78.305458 198.999420,93.549843 
	C199.323334,93.665222 199.647232,93.780602 200.869644,94.025200 
	C203.589249,93.979073 206.308868,93.932938 209.498230,93.957649 
	C209.498230,93.957649 209.939713,93.782219 210.641647,93.363251 
M230.158096,92.067482 
	C230.168533,83.415810 230.177826,74.764130 230.189819,66.112457 
	C230.197769,60.374638 232.443100,57.746834 238.291855,57.104115 
	C240.889938,56.818607 243.545471,57.055916 246.444000,57.055916 
	C246.444000,53.316368 246.444000,49.920330 246.444000,45.255150 
	C240.690216,46.561672 235.505600,47.738953 230.411224,48.895744 
	C227.340912,44.815990 222.684036,47.938816 218.481735,46.917522 
	C218.327911,48.240406 218.156540,49.032188 218.155533,49.824181 
	C218.137939,63.633785 218.125031,77.443481 218.178909,91.252899 
	C218.182251,92.108315 218.746536,92.961540 219.499527,93.991959 
	C219.499527,93.991959 219.976608,93.916725 220.869553,94.075134 
	C223.585281,94.029716 226.300995,93.984299 229.587250,93.943451 
	C229.729858,93.627380 229.872467,93.311317 230.158096,92.067482 
M348.111694,92.081459 
	C348.098602,82.430542 348.236847,72.776337 348.027222,63.129688 
	C347.840607,54.540440 343.528473,48.912876 335.329742,46.780014 
	C328.837524,45.091099 322.463013,45.749550 316.938141,49.997910 
	C314.629089,46.575394 312.797852,46.234394 305.343719,47.592815 
	C305.343719,62.950428 305.343719,78.321404 305.343719,93.626488 
	C309.388397,93.626488 313.108215,93.626488 317.049438,93.626488 
	C317.049438,84.113052 317.043701,74.972610 317.051483,65.832184 
	C317.056458,59.972935 320.355255,56.944225 326.840881,56.817905 
	C332.889038,56.700104 335.812958,59.269379 335.967194,65.399445 
	C336.168060,73.381958 336.011292,81.372963 336.125946,89.358620 
	C336.147522,90.860527 336.719910,92.354538 337.499817,93.995407 
	C337.499817,93.995407 337.975464,93.909126 338.868500,94.068222 
	C341.584717,94.023094 344.300934,93.977959 347.569183,93.943146 
	C347.700653,93.632179 347.832153,93.321213 348.111694,92.081459 
M189.141388,47.025791 
	C185.544189,47.731171 181.093155,44.922039 178.349106,49.953999 
	C173.200500,44.863022 166.750061,45.633133 160.803040,46.804947 
	C151.005768,48.735420 145.098831,55.547607 143.268509,65.123917 
	C141.408279,74.856773 143.582870,83.927200 151.944168,90.157639 
	C159.714417,95.947670 168.226105,97.354500 177.137939,92.217255 
	C177.695816,91.895668 178.925568,92.739677 179.996979,93.559677 
	C180.320770,93.664803 180.644562,93.769936 181.865112,94.015114 
	C184.584030,93.975433 187.302963,93.935753 190.554169,93.913177 
	C190.677475,93.614746 190.800781,93.316315 191.052353,92.085854 
	C190.999481,77.382835 190.946625,62.679817 190.909302,47.473270 
	C190.618423,47.369202 190.327545,47.265133 189.141388,47.025791 
M260.210754,24.367918 
	C257.454346,24.367918 254.697906,24.367918 251.835373,24.367918 
	C251.835373,47.995945 251.835373,70.865799 251.835373,94.424194 
	C256.382660,93.958809 260.533234,93.534019 266.449005,92.928574 
	C275.825134,98.997833 288.427887,93.691208 293.942688,87.270180 
	C301.687469,78.252678 302.120422,64.504440 294.890106,54.959557 
	C287.900879,45.732937 276.693878,43.724220 263.673615,49.597504 
	C263.673615,42.318012 263.798370,35.196182 263.557343,28.086765 
	C263.514496,26.822802 261.951691,25.610369 260.210754,24.367918 
M199.131378,38.389732 
	C202.530380,41.137520 206.505768,41.716850 209.492340,38.673801 
	C211.369522,36.761120 212.853745,32.898941 212.220856,30.522053 
	C211.575089,28.096859 208.366058,25.295290 205.828278,24.747398 
	C203.547699,24.255033 199.950821,25.944233 198.195251,27.839104 
	C195.459274,30.792213 196.081726,34.602783 199.131378,38.389732 
z"/>
<path fill="#FF5C61" opacity="1.000000" stroke="none" 
	d="
M62.562500,1.000000 
	C71.805786,3.486056 77.053848,9.715014 80.893196,17.626810 
	C92.058975,40.636253 103.543571,63.493328 114.492546,86.604675 
	C120.132355,98.509315 117.682770,111.108788 108.458450,118.863777 
	C105.022995,121.752007 100.396919,123.224045 96.156876,125.670929 
	C92.638710,126.000000 89.277428,126.000000 85.277824,125.685211 
	C74.250046,122.821198 66.515030,116.071434 58.971096,108.527626 
	C51.426605,117.108421 42.712387,123.146370 32.000000,126.000000 
	C28.969406,126.000000 25.938814,126.000000 22.281460,125.688278 
	C10.935682,122.470825 4.674378,115.046532 1.000000,105.000000 
	C1.000000,101.638710 1.000000,98.277428 1.296663,94.244583 
	C2.683933,90.627060 3.536035,87.565132 4.902904,84.753471 
	C15.780016,62.379166 26.836546,40.091835 37.656471,17.690128 
	C41.578434,9.570053 46.949554,3.339398 56.000000,1.000000 
	C58.041668,1.000000 60.083332,1.000000 62.562500,1.000000 
M106.629646,87.981613 
	C95.446419,65.152039 84.392372,42.257301 72.944092,19.561426 
	C71.177361,16.058945 68.124481,12.523137 64.751297,10.655847 
	C57.846241,6.833425 50.647621,10.247488 46.195255,19.009283 
	C36.935043,37.232430 27.846193,55.544327 18.869215,73.908859 
	C15.519442,80.761604 12.064534,87.666252 9.747085,94.896446 
	C6.146547,106.129738 14.639422,117.557915 26.398325,118.084663 
	C38.751595,118.638031 46.338146,110.834862 53.874233,102.775757 
	C46.869747,93.475067 40.720131,84.422554 38.407890,73.354156 
	C35.693176,60.359131 43.391171,49.151123 56.455524,47.169582 
	C68.696869,45.312878 80.222809,54.166077 80.299713,66.716644 
	C80.336906,72.786507 78.389076,79.205811 75.944130,84.863708 
	C73.213287,91.183205 68.899254,96.818550 64.513306,103.997116 
	C70.234062,108.015862 75.842590,113.124016 82.390457,116.288597 
	C92.867836,121.352310 104.574921,116.231377 108.390869,106.057472 
	C110.648376,100.038589 109.586395,94.300911 106.629646,87.981613 
M72.514984,66.869995 
	C70.765762,57.786289 65.423721,53.755039 56.788853,55.002609 
	C49.602001,56.040970 45.029583,62.256081 46.155731,70.392120 
	C47.536549,80.368065 53.006828,88.360420 59.371281,96.252411 
	C65.908623,87.227745 72.076988,78.753006 72.514984,66.869995 
z"/>
<path fill="#FFFEFE" opacity="1.000000" stroke="none" 
	d="
M55.531342,1.000000 
	C46.949554,3.339398 41.578434,9.570053 37.656471,17.690128 
	C26.836546,40.091835 15.780016,62.379166 4.902904,84.753471 
	C3.536035,87.565132 2.683933,90.627060 1.296663,93.786514 
	C1.000000,63.091904 1.000000,32.183811 1.000000,1.000000 
	C19.019957,1.000000 37.041321,1.000000 55.531342,1.000000 
z"/>
<path fill="#FF585E" opacity="1.000000" stroke="none" 
	d="
M403.000000,76.541931 
	C402.316833,78.264229 401.510345,79.478027 400.969666,80.800499 
	C395.556519,94.040337 378.126343,99.611008 367.310425,91.380394 
	C364.713593,94.518089 364.499847,94.560081 354.833801,93.732002 
	C354.833801,70.901917 354.833801,48.038776 354.833801,24.770321 
	C358.605927,24.770321 362.308289,24.770321 366.592529,24.770321 
	C366.592529,33.023251 366.592529,41.221886 366.592529,49.682713 
	C383.426178,41.646141 399.178192,48.879055 402.692505,65.789536 
	C403.000000,69.361290 403.000000,72.722572 403.000000,76.541931 
M390.957916,68.849327 
	C390.492523,67.267708 390.229919,65.588669 389.525452,64.121872 
	C386.919189,58.695393 379.985748,55.746994 373.872467,57.319530 
	C368.027618,58.823017 366.667297,60.990654 366.667877,68.800697 
	C366.668060,71.288170 366.613831,73.777161 366.682678,76.262733 
	C366.776550,79.652214 372.148987,84.860085 375.409302,84.801308 
	C384.599060,84.635666 390.545166,78.867416 390.957916,68.849327 
z"/>
<path fill="#FFFDFD" opacity="1.000000" stroke="none" 
	d="
M32.468658,126.000000 
	C42.712387,123.146370 51.426605,117.108421 58.971096,108.527626 
	C66.515030,116.071434 74.250046,122.821198 84.819756,125.685211 
	C67.645775,126.000000 50.291546,126.000000 32.468658,126.000000 
z"/>
<path fill="#FFFBFB" opacity="1.000000" stroke="none" 
	d="
M1.000000,105.468910 
	C4.674378,115.046532 10.935682,122.470825 21.827349,125.688278 
	C15.073850,126.000000 8.147698,126.000000 1.000000,126.000000 
	C1.000000,119.314232 1.000000,112.626022 1.000000,105.468910 
z"/>
<path fill="#FF585E" opacity="1.000000" stroke="none" 
	d="
M260.650757,24.371031 
	C261.951691,25.610369 263.514496,26.822802 263.557343,28.086765 
	C263.798370,35.196182 263.673615,42.318012 263.673615,49.597504 
	C276.693878,43.724220 287.900879,45.732937 294.890106,54.959557 
	C302.120422,64.504440 301.687469,78.252678 293.942688,87.270180 
	C288.427887,93.691208 275.825134,98.997833 266.449005,92.928574 
	C260.533234,93.534019 256.382660,93.958809 251.835373,94.424194 
	C251.835373,70.865799 251.835373,47.995945 251.835373,24.367918 
	C254.697906,24.367918 257.454346,24.367918 260.650757,24.371031 
M263.703644,77.900902 
	C266.765594,83.606544 271.443359,85.344559 278.229523,83.297981 
	C286.304504,80.862732 290.058014,73.139900 287.016083,65.219582 
	C284.376068,58.345791 275.760773,55.002449 268.768127,58.095142 
	C265.274170,59.640438 263.169800,61.832203 263.593170,66.083435 
	C263.952759,69.694214 263.670532,73.368904 263.703644,77.900902 
z"/>
<path fill="#FF5B60" opacity="1.000000" stroke="none" 
	d="
M179.842743,93.041412 
	C178.925568,92.739677 177.695816,91.895668 177.137939,92.217255 
	C168.226105,97.354500 159.714417,95.947670 151.944168,90.157639 
	C143.582870,83.927200 141.408279,74.856773 143.268509,65.123917 
	C145.098831,55.547607 151.005768,48.735420 160.803040,46.804947 
	C166.750061,45.633133 173.200500,44.863022 178.349106,49.953999 
	C181.093155,44.922039 185.544189,47.731171 189.683624,47.274788 
	C190.398682,47.748238 190.621307,47.899242 190.893768,47.976799 
	C190.946625,62.679817 190.999481,77.382835 190.788193,92.641022 
	C190.271210,93.368179 190.103821,93.601471 190.021881,93.896072 
	C187.302963,93.935753 184.584030,93.975433 181.287155,93.738571 
	C180.465469,93.228973 180.176651,93.088768 179.842743,93.041412 
M170.977859,57.133804 
	C169.487381,57.133682 167.969055,56.946625 166.510941,57.163807 
	C157.102921,58.565128 152.044571,68.181107 156.153503,76.738380 
	C157.980255,80.542763 164.812424,85.322868 167.755066,84.642807 
	C179.615494,81.901794 179.583008,80.803909 179.130890,71.169830 
	C179.084244,70.176041 178.979462,69.152802 179.148346,68.186340 
	C180.201797,62.157486 177.463089,58.753670 170.977859,57.133804 
z"/>
<path fill="#FF5B60" opacity="1.000000" stroke="none" 
	d="
M347.017151,93.932823 
	C344.300934,93.977959 341.584717,94.023094 338.343018,93.835609 
	C337.557709,93.686058 337.297882,93.769127 337.038086,93.852188 
	C336.719910,92.354538 336.147522,90.860527 336.125946,89.358620 
	C336.011292,81.372963 336.168060,73.381958 335.967194,65.399445 
	C335.812958,59.269379 332.889038,56.700104 326.840881,56.817905 
	C320.355255,56.944225 317.056458,59.972935 317.051483,65.832184 
	C317.043701,74.972610 317.049438,84.113052 317.049438,93.626488 
	C313.108215,93.626488 309.388397,93.626488 305.343719,93.626488 
	C305.343719,78.321404 305.343719,62.950428 305.343719,47.592815 
	C312.797852,46.234394 314.629089,46.575394 316.938141,49.997910 
	C322.463013,45.749550 328.837524,45.091099 335.329742,46.780014 
	C343.528473,48.912876 347.840607,54.540440 348.027222,63.129688 
	C348.236847,72.776337 348.098602,82.430542 347.826782,92.638382 
	C347.275238,93.375877 347.100342,93.621719 347.017151,93.932823 
z"/>
<path fill="#FF5E63" opacity="1.000000" stroke="none" 
	d="
M219.049835,93.815781 
	C218.746536,92.961540 218.182251,92.108315 218.178909,91.252899 
	C218.125031,77.443481 218.137939,63.633785 218.155533,49.824181 
	C218.156540,49.032188 218.327911,48.240406 218.481735,46.917522 
	C222.684036,47.938816 227.340912,44.815990 230.411224,48.895744 
	C235.505600,47.738953 240.690216,46.561672 246.444000,45.255150 
	C246.444000,49.920330 246.444000,53.316368 246.444000,57.055916 
	C243.545471,57.055916 240.889938,56.818607 238.291855,57.104115 
	C232.443100,57.746834 230.197769,60.374638 230.189819,66.112457 
	C230.177826,74.764130 230.168533,83.415810 229.866150,92.624947 
	C229.290634,93.362503 229.104797,93.614662 229.016724,93.938881 
	C226.300995,93.984299 223.585281,94.029716 220.349640,93.842323 
	C219.569763,93.678268 219.309799,93.747017 219.049835,93.815781 
z"/>
<path fill="#FF5E63" opacity="1.000000" stroke="none" 
	d="
M198.997284,92.999184 
	C198.947571,78.305458 198.897842,63.611729 199.136078,48.371094 
	C199.682709,47.664925 199.861496,47.441654 199.960373,47.154385 
	C203.389816,47.154385 206.819244,47.154385 210.641647,47.154385 
	C210.641647,62.744904 210.641647,78.054077 210.193359,93.437134 
	C209.392899,93.353241 209.154022,93.478508 209.028473,93.886810 
	C206.308868,93.932938 203.589249,93.979073 200.319824,93.752731 
	C199.567413,93.231606 199.309830,93.071251 198.997284,92.999184 
z"/>
<path fill="#FF5D62" opacity="1.000000" stroke="none" 
	d="
M198.872009,38.124870 
	C196.081726,34.602783 195.459274,30.792213 198.195251,27.839104 
	C199.950821,25.944233 203.547699,24.255033 205.828278,24.747398 
	C208.366058,25.295290 211.575089,28.096859 212.220856,30.522053 
	C212.853745,32.898941 211.369522,36.761120 209.492340,38.673801 
	C206.505768,41.716850 202.530380,41.137520 198.872009,38.124870 
z"/>
<path fill="#FF4C52" opacity="1.000000" stroke="none" 
	d="
M199.697449,47.143089 
	C199.861496,47.441654 199.682709,47.664925 199.223022,47.908722 
	C199.159531,47.706100 199.297012,47.418945 199.697449,47.143089 
z"/>
<path fill="#FF4E54" opacity="1.000000" stroke="none" 
	d="
M190.901520,47.725037 
	C190.621307,47.899242 190.398682,47.748238 190.131271,47.342426 
	C190.327545,47.265133 190.618423,47.369202 190.901520,47.725037 
z"/>
<path fill="#FF4E54" opacity="1.000000" stroke="none" 
	d="
M179.919861,93.300545 
	C180.176651,93.088768 180.465469,93.228973 180.838776,93.668549 
	C180.644562,93.769936 180.320770,93.664803 179.919861,93.300545 
z"/>
<path fill="#FF4E54" opacity="1.000000" stroke="none" 
	d="
M190.288025,93.904625 
	C190.103821,93.601471 190.271210,93.368179 190.724060,93.107040 
	C190.800781,93.316315 190.677475,93.614746 190.288025,93.904625 
z"/>
<path fill="#FF4C52" opacity="1.000000" stroke="none" 
	d="
M198.998352,93.274513 
	C199.309830,93.071251 199.567413,93.231606 199.870575,93.688126 
	C199.647232,93.780602 199.323334,93.665222 198.998352,93.274513 
z"/>
<path fill="#FF4C52" opacity="1.000000" stroke="none" 
	d="
M209.263351,93.922226 
	C209.154022,93.478508 209.392899,93.353241 209.842407,93.646614 
	C209.939713,93.782219 209.498230,93.957649 209.263351,93.922226 
z"/>
<path fill="#FF4C52" opacity="1.000000" stroke="none" 
	d="
M219.274689,93.903870 
	C219.309799,93.747017 219.569763,93.678268 219.903168,93.763123 
	C219.976608,93.916725 219.499527,93.991959 219.274689,93.903870 
z"/>
<path fill="#FF4C52" opacity="1.000000" stroke="none" 
	d="
M229.301987,93.941162 
	C229.104797,93.614662 229.290634,93.362503 229.794647,93.088837 
	C229.872467,93.311317 229.729858,93.627380 229.301987,93.941162 
z"/>
<path fill="#FF4B51" opacity="1.000000" stroke="none" 
	d="
M337.268951,93.923798 
	C337.297882,93.769127 337.557709,93.686058 337.896484,93.756058 
	C337.975464,93.909126 337.499817,93.995407 337.268951,93.923798 
z"/>
<path fill="#FF4B51" opacity="1.000000" stroke="none" 
	d="
M347.293152,93.937988 
	C347.100342,93.621719 347.275238,93.375877 347.752747,93.102768 
	C347.832153,93.321213 347.700653,93.632179 347.293152,93.937988 
z"/>
<path fill="#FFFDFD" opacity="1.000000" stroke="none" 
	d="
M106.784576,88.337746 
	C109.586395,94.300911 110.648376,100.038589 108.390869,106.057472 
	C104.574921,116.231377 92.867836,121.352310 82.390457,116.288597 
	C75.842590,113.124016 70.234062,108.015862 64.513306,103.997116 
	C68.899254,96.818550 73.213287,91.183205 75.944130,84.863708 
	C78.389076,79.205811 80.336906,72.786507 80.299713,66.716644 
	C80.222809,54.166077 68.696869,45.312878 56.455524,47.169582 
	C43.391171,49.151123 35.693176,60.359131 38.407890,73.354156 
	C40.720131,84.422554 46.869747,93.475067 53.874233,102.775757 
	C46.338146,110.834862 38.751595,118.638031 26.398325,118.084663 
	C14.639422,117.557915 6.146547,106.129738 9.747085,94.896446 
	C12.064534,87.666252 15.519442,80.761604 18.869215,73.908859 
	C27.846193,55.544327 36.935043,37.232430 46.195255,19.009283 
	C50.647621,10.247488 57.846241,6.833425 64.751297,10.655847 
	C68.124481,12.523137 71.177361,16.058945 72.944092,19.561426 
	C84.392372,42.257301 95.446419,65.152039 106.784576,88.337746 
z"/>
<path fill="#FFFDFD" opacity="1.000000" stroke="none" 
	d="
M72.564987,67.267105 
	C72.076988,78.753006 65.908623,87.227745 59.371281,96.252411 
	C53.006828,88.360420 47.536549,80.368065 46.155731,70.392120 
	C45.029583,62.256081 49.602001,56.040970 56.788853,55.002609 
	C65.423721,53.755039 70.765762,57.786289 72.564987,67.267105 
z"/>
<path fill="#FFFDFD" opacity="1.000000" stroke="none" 
	d="
M390.979309,69.262787 
	C390.545166,78.867416 384.599060,84.635666 375.409302,84.801308 
	C372.148987,84.860085 366.776550,79.652214 366.682678,76.262733 
	C366.613831,73.777161 366.668060,71.288170 366.667877,68.800697 
	C366.667297,60.990654 368.027618,58.823017 373.872467,57.319530 
	C379.985748,55.746994 386.919189,58.695393 389.525452,64.121872 
	C390.229919,65.588669 390.492523,67.267708 390.979309,69.262787 
z"/>
<path fill="#FFFCFD" opacity="1.000000" stroke="none" 
	d="
M263.687988,77.458107 
	C263.670532,73.368904 263.952759,69.694214 263.593170,66.083435 
	C263.169800,61.832203 265.274170,59.640438 268.768127,58.095142 
	C275.760773,55.002449 284.376068,58.345791 287.016083,65.219582 
	C290.058014,73.139900 286.304504,80.862732 278.229523,83.297981 
	C271.443359,85.344559 266.765594,83.606544 263.687988,77.458107 
z"/>
<path fill="#FFFDFD" opacity="1.000000" stroke="none" 
	d="
M171.378250,57.228256 
	C177.463089,58.753670 180.201797,62.157486 179.148346,68.186340 
	C178.979462,69.152802 179.084244,70.176041 179.130890,71.169830 
	C179.583008,80.803909 179.615494,81.901794 167.755066,84.642807 
	C164.812424,85.322868 157.980255,80.542763 156.153503,76.738380 
	C152.044571,68.181107 157.102921,58.565128 166.510941,57.163807 
	C167.969055,56.946625 169.487381,57.133682 171.378250,57.228256 
z"/>
</svg>